<svg version="1.1" id="Layer_1" xmlns="http://www.w3.org/2000/svg" xmlns:xlink="http://www.w3.org/1999/xlink" x="0px" y="0px"
	 width="100%" viewBox="0 0 503 500" enable-background="new 0 0 503 500" xml:space="preserve">
<path fill="#FFF1E1" opacity="1.000000" stroke="none" 
	d="
M316.000000,501.000000 
	C210.666687,501.000000 105.833382,501.000000 1.000056,501.000000 
	C1.000037,334.333405 1.000037,167.666794 1.000019,1.000146 
	C168.666565,1.000097 336.333130,1.000097 503.999756,1.000049 
	C503.999847,167.666519 503.999847,334.333038 503.999939,500.999786 
	C441.500000,501.000000 379.000000,501.000000 316.000000,501.000000 
M247.161713,325.257599 
	C249.449234,325.371643 252.018158,326.229858 253.981781,325.487305 
	C280.583771,315.428406 307.367065,313.533875 334.481079,323.206085 
	C340.981873,325.525055 342.960999,324.272217 342.961700,317.289276 
	C342.964752,286.980011 342.814514,256.669495 343.087982,226.362762 
	C343.131989,221.487213 341.467316,219.036377 337.216644,217.512787 
	C309.324341,207.515259 281.598145,207.118240 253.989914,218.652252 
	C252.357513,219.334229 249.955353,219.883316 248.570724,219.185669 
	C233.850174,211.768539 218.071762,210.061768 201.962006,210.305267 
	C188.391586,210.510361 175.010284,212.175858 162.688980,218.376282 
	C160.882492,219.285355 158.761353,221.872894 158.747711,223.698471 
	C158.509140,255.673630 158.547897,287.651123 158.609787,319.627960 
	C158.618500,324.133759 160.662140,325.453979 165.100708,324.203644 
	C169.582367,322.941193 173.991547,321.382080 178.520645,320.333954 
	C201.616211,314.989136 224.366318,315.220764 247.161713,325.257599 
M107.324615,111.887100 
	C99.038139,110.189926 92.265930,115.113487 93.491890,122.512527 
	C93.989983,125.518639 96.029167,128.679459 98.228279,130.927490 
	C113.130997,146.161697 128.262772,161.171890 143.323639,176.251343 
	C147.201660,180.134155 150.975739,184.130569 155.005905,187.848969 
	C159.439896,191.939941 165.273529,191.871231 169.427002,187.995316 
	C173.477997,184.215073 173.901520,178.815582 170.407684,174.017593 
	C169.337341,172.547729 168.055771,171.214981 166.766525,169.923706 
	C149.117798,152.247437 131.465012,134.575150 113.765984,116.949303 
	C112.010712,115.201279 109.945709,113.764267 107.324615,111.887100 
M344.266235,348.044128 
	C338.034912,345.533722 333.165009,346.624664 330.122864,351.212463 
	C327.265442,355.521698 328.035797,360.799591 332.369904,365.214905 
	C338.315948,371.272308 344.367371,377.226196 350.369659,383.228424 
	C363.547760,396.406342 376.686554,409.623871 389.919128,422.746857 
	C394.842438,427.629395 400.988129,427.786102 405.441345,423.425415 
	C409.782013,419.174927 409.467773,412.975769 404.611725,407.943451 
	C402.880768,406.149658 401.053375,404.449371 399.286926,402.689362 
	C381.149261,384.617249 363.015015,366.541595 344.266235,348.044128 
M396.336761,137.836487 
	C399.055756,135.139084 401.822021,132.487411 404.483551,129.734467 
	C409.522461,124.522461 409.919830,118.712357 405.627899,114.205215 
	C401.346008,109.708611 394.786316,109.897369 389.738647,114.929291 
	C370.640625,133.967621 351.578522,153.042267 332.578552,172.178375 
	C327.265808,177.529205 326.874359,183.678360 331.211548,188.051926 
	C335.684662,192.562592 342.127380,192.061462 347.457947,186.733978 
	C363.591919,170.609253 379.710205,154.468796 396.336761,137.836487 
M121.389168,412.887512 
	C137.465698,396.756805 153.585114,380.668457 169.591568,364.468506 
	C174.161148,359.843658 174.133453,353.454407 169.916534,349.333984 
	C165.729492,345.242767 159.611099,345.135254 155.167603,349.556122 
	C135.483231,369.140198 115.869667,388.796112 96.333969,408.528503 
	C91.827576,413.080261 91.855515,419.056732 95.894447,423.232361 
	C100.202621,427.686340 106.112846,427.757385 110.972809,423.228180 
	C114.377831,420.054901 117.591728,416.676514 121.389168,412.887512 
M113.494682,258.147858 
	C90.073227,258.163208 66.651543,258.126434 43.230461,258.227753 
	C36.759228,258.255737 32.119225,262.750610 32.082890,268.537506 
	C32.046467,274.338562 36.295719,278.941223 42.469395,278.969330 
	C70.242126,279.095734 98.016037,279.100281 125.788788,278.978912 
	C131.871887,278.952332 135.942841,274.658630 136.074524,268.997864 
	C136.213013,263.045441 132.233566,258.666565 125.949387,258.251282 
	C122.145424,257.999847 118.310715,258.213470 113.494682,258.147858 
M465.067535,260.297943 
	C462.549194,259.578094 460.033844,258.245056 457.512024,258.232697 
	C430.579254,258.100525 403.644775,258.093506 376.713104,258.323914 
	C373.956299,258.347473 370.783783,259.565247 368.565247,261.238129 
	C365.093445,263.856018 364.252808,267.873169 365.804077,272.060181 
	C367.569427,276.824951 371.140411,279.049103 376.197662,279.049500 
	C403.330048,279.051758 430.462463,279.046051 457.594727,279.115173 
	C462.359924,279.127319 466.149506,277.550964 468.157532,273.102600 
	C470.229004,268.513672 469.257050,264.334900 465.067535,260.297943 
M261.083649,83.500000 
	C261.073456,75.839096 261.229492,68.173210 261.000458,60.518856 
	C260.817841,54.415810 256.643524,50.322311 251.015396,50.140766 
	C245.134140,49.951054 240.829575,53.979935 240.255219,60.289978 
	C240.119797,61.777790 240.183578,63.285221 240.183350,64.783630 
	C240.179871,88.433144 240.177841,112.082649 240.184723,135.732162 
	C240.185593,138.728653 239.958374,141.760117 240.327103,144.714172 
	C241.040253,150.427353 245.470016,154.242691 250.793869,154.138992 
	C256.481506,154.028214 260.536652,150.015488 261.013489,143.954422 
	C261.130737,142.463699 261.080902,140.958618 261.081207,139.460129 
	C261.084930,121.140083 261.083679,102.820045 261.083649,83.500000 
M240.182037,455.500000 
	C240.184219,462.488861 240.116989,469.478638 240.213318,476.466217 
	C240.276093,481.021210 242.371902,484.521820 246.593994,486.347046 
	C250.411194,487.997192 254.710907,487.782013 257.190460,484.599426 
	C259.339600,481.840973 260.868408,477.818817 260.917053,474.330688 
	C261.237366,451.371674 261.085632,428.406036 261.079742,405.442535 
	C261.078674,401.283020 261.285980,397.104095 260.958801,392.968781 
	C260.514679,387.354950 256.047974,383.262909 250.804810,383.177063 
	C245.542877,383.090881 241.106689,387.022491 240.306183,392.607513 
	C240.095428,394.077850 240.186676,395.595398 240.186188,397.091278 
	C240.179871,416.227509 240.182114,435.363770 240.182037,455.500000 
z"/>
<path fill="#D3621C" opacity="1.000000" stroke="none" 
	d="
M246.806641,325.107208 
	C224.366318,315.220764 201.616211,314.989136 178.520645,320.333954 
	C173.991547,321.382080 169.582367,322.941193 165.100708,324.203644 
	C160.662140,325.453979 158.618500,324.133759 158.609787,319.627960 
	C158.547897,287.651123 158.509140,255.673630 158.747711,223.698471 
	C158.761353,221.872894 160.882492,219.285355 162.688980,218.376282 
	C175.010284,212.175858 188.391586,210.510361 201.962006,210.305267 
	C218.071762,210.061768 233.850174,211.768539 248.570724,219.185669 
	C249.955353,219.883316 252.357513,219.334229 253.989914,218.652252 
	C281.598145,207.118240 309.324341,207.515259 337.216644,217.512787 
	C341.467316,219.036377 343.131989,221.487213 343.087982,226.362762 
	C342.814514,256.669495 342.964752,286.980011 342.961700,317.289276 
	C342.960999,324.272217 340.981873,325.525055 334.481079,323.206085 
	C307.367065,313.533875 280.583771,315.428406 253.981781,325.487305 
	C252.018158,326.229858 249.449234,325.371643 246.806641,325.107208 
M326.102570,294.478973 
	C326.102570,272.228485 326.102570,249.978012 326.102570,227.900040 
	C302.740448,220.626190 273.932892,224.273087 253.414902,233.202927 
	C252.059219,233.792953 250.921844,236.511261 250.891922,238.260330 
	C250.675629,250.900024 250.769684,263.545044 250.767914,276.188385 
	C250.766220,288.294708 250.767532,300.401001 250.767532,313.087524 
	C275.330353,302.866669 300.044800,300.209900 326.048737,306.403687 
	C326.048737,302.371460 326.048737,298.920990 326.102570,294.478973 
z"/>
<path fill="#D3631E" opacity="1.000000" stroke="none" 
	d="
M107.674538,112.035004 
	C109.945709,113.764267 112.010712,115.201279 113.765984,116.949303 
	C131.465012,134.575150 149.117798,152.247437 166.766525,169.923706 
	C168.055771,171.214981 169.337341,172.547729 170.407684,174.017593 
	C173.901520,178.815582 173.477997,184.215073 169.427002,187.995316 
	C165.273529,191.871231 159.439896,191.939941 155.005905,187.848969 
	C150.975739,184.130569 147.201660,180.134155 143.323639,176.251343 
	C128.262772,161.171890 113.130997,146.161697 98.228279,130.927490 
	C96.029167,128.679459 93.989983,125.518639 93.491890,122.512527 
	C92.265930,115.113487 99.038139,110.189926 107.674538,112.035004 
z"/>
<path fill="#D3621D" opacity="1.000000" stroke="none" 
	d="
M344.573029,348.255554 
	C363.015015,366.541595 381.149261,384.617249 399.286926,402.689362 
	C401.053375,404.449371 402.880768,406.149658 404.611725,407.943451 
	C409.467773,412.975769 409.782013,419.174927 405.441345,423.425415 
	C400.988129,427.786102 394.842438,427.629395 389.919128,422.746857 
	C376.686554,409.623871 363.547760,396.406342 350.369659,383.228424 
	C344.367371,377.226196 338.315948,371.272308 332.369904,365.214905 
	C328.035797,360.799591 327.265442,355.521698 330.122864,351.212463 
	C333.165009,346.624664 338.034912,345.533722 344.573029,348.255554 
z"/>
<path fill="#D46521" opacity="1.000000" stroke="none" 
	d="
M396.085693,138.085480 
	C379.710205,154.468796 363.591919,170.609253 347.457947,186.733978 
	C342.127380,192.061462 335.684662,192.562592 331.211548,188.051926 
	C326.874359,183.678360 327.265808,177.529205 332.578552,172.178375 
	C351.578522,153.042267 370.640625,133.967621 389.738647,114.929291 
	C394.786316,109.897369 401.346008,109.708611 405.627899,114.205215 
	C409.919830,118.712357 409.522461,124.522461 404.483551,129.734467 
	C401.822021,132.487411 399.055756,135.139084 396.085693,138.085480 
z"/>
<path fill="#D3641F" opacity="1.000000" stroke="none" 
	d="
M121.140083,413.138611 
	C117.591728,416.676514 114.377831,420.054901 110.972809,423.228180 
	C106.112846,427.757385 100.202621,427.686340 95.894447,423.232361 
	C91.855515,419.056732 91.827576,413.080261 96.333969,408.528503 
	C115.869667,388.796112 135.483231,369.140198 155.167603,349.556122 
	C159.611099,345.135254 165.729492,345.242767 169.916534,349.333984 
	C174.133453,353.454407 174.161148,359.843658 169.591568,364.468506 
	C153.585114,380.668457 137.465698,396.756805 121.140083,413.138611 
z"/>
<path fill="#D36520" opacity="1.000000" stroke="none" 
	d="
M113.992249,258.183014 
	C118.310715,258.213470 122.145424,257.999847 125.949387,258.251282 
	C132.233566,258.666565 136.213013,263.045441 136.074524,268.997864 
	C135.942841,274.658630 131.871887,278.952332 125.788788,278.978912 
	C98.016037,279.100281 70.242126,279.095734 42.469395,278.969330 
	C36.295719,278.941223 32.046467,274.338562 32.082890,268.537506 
	C32.119225,262.750610 36.759228,258.255737 43.230461,258.227753 
	C66.651543,258.126434 90.073227,258.163208 113.992249,258.183014 
z"/>
<path fill="#D36520" opacity="1.000000" stroke="none" 
	d="
M465.360046,260.546814 
	C469.257050,264.334900 470.229004,268.513672 468.157532,273.102600 
	C466.149506,277.550964 462.359924,279.127319 457.594727,279.115173 
	C430.462463,279.046051 403.330048,279.051758 376.197662,279.049500 
	C371.140411,279.049103 367.569427,276.824951 365.804077,272.060181 
	C364.252808,267.873169 365.093445,263.856018 368.565247,261.238129 
	C370.783783,259.565247 373.956299,258.347473 376.713104,258.323914 
	C403.644775,258.093506 430.579254,258.100525 457.512024,258.232697 
	C460.033844,258.245056 462.549194,259.578094 465.360046,260.546814 
z"/>
<path fill="#D3641F" opacity="1.000000" stroke="none" 
	d="
M261.083679,84.000000 
	C261.083679,102.820045 261.084930,121.140083 261.081207,139.460129 
	C261.080902,140.958618 261.130737,142.463699 261.013489,143.954422 
	C260.536652,150.015488 256.481506,154.028214 250.793869,154.138992 
	C245.470016,154.242691 241.040253,150.427353 240.327103,144.714172 
	C239.958374,141.760117 240.185593,138.728653 240.184723,135.732162 
	C240.177841,112.082649 240.179871,88.433144 240.183350,64.783630 
	C240.183578,63.285221 240.119797,61.777790 240.255219,60.289978 
	C240.829575,53.979935 245.134140,49.951054 251.015396,50.140766 
	C256.643524,50.322311 260.817841,54.415810 261.000458,60.518856 
	C261.229492,68.173210 261.073456,75.839096 261.083679,84.000000 
z"/>
<path fill="#D3641F" opacity="1.000000" stroke="none" 
	d="
M240.182098,455.000000 
	C240.182114,435.363770 240.179871,416.227509 240.186188,397.091278 
	C240.186676,395.595398 240.095428,394.077850 240.306183,392.607513 
	C241.106689,387.022491 245.542877,383.090881 250.804810,383.177063 
	C256.047974,383.262909 260.514679,387.354950 260.958801,392.968781 
	C261.285980,397.104095 261.078674,401.283020 261.079742,405.442535 
	C261.085632,428.406036 261.237366,451.371674 260.917053,474.330688 
	C260.868408,477.818817 259.339600,481.840973 257.190460,484.599426 
	C254.710907,487.782013 250.411194,487.997192 246.593994,486.347046 
	C242.371902,484.521820 240.276093,481.021210 240.213318,476.466217 
	C240.116989,469.478638 240.184219,462.488861 240.182098,455.000000 
z"/>
<path fill="#FFF0E0" opacity="1.000000" stroke="none" 
	d="
M326.075653,294.974731 
	C326.048737,298.920990 326.048737,302.371460 326.048737,306.403687 
	C300.044800,300.209900 275.330353,302.866669 250.767532,313.087524 
	C250.767532,300.401001 250.766220,288.294708 250.767914,276.188385 
	C250.769684,263.545044 250.675629,250.900024 250.891922,238.260330 
	C250.921844,236.511261 252.059219,233.792953 253.414902,233.202927 
	C273.932892,224.273087 302.740448,220.626190 326.102570,227.900040 
	C326.102570,249.978012 326.102570,272.228485 326.075653,294.974731 
z"/>
</svg>